<svg xmlns="http://www.w3.org/2000/svg" width="453" height="453" viewBox="0 0 453 453"><g transform="translate(-296 -200)"><rect width="453" height="453" transform="translate(296 200)" fill="none"/><g transform="translate(464.999 -353.664) rotate(45)"><path d="M-141.725,357.275a161.181,161.181,0,0,1-32.246-3.251A159.191,159.191,0,0,1-204,344.7a160.013,160.013,0,0,1-27.178-14.752,161.147,161.147,0,0,1-23.68-19.537,161.15,161.15,0,0,1-19.537-23.68,160.015,160.015,0,0,1-14.752-27.178,159.2,159.2,0,0,1-9.323-30.034,161.186,161.186,0,0,1-3.251-32.246,161.183,161.183,0,0,1,3.251-32.245A159.192,159.192,0,0,1-289.151,135,160.016,160.016,0,0,1-274.4,107.818a161.153,161.153,0,0,1,19.537-23.68A161.148,161.148,0,0,1-231.182,64.6,160.016,160.016,0,0,1-204,49.849a159.194,159.194,0,0,1,30.034-9.323,161.183,161.183,0,0,1,32.246-3.251l0,160h160a161.186,161.186,0,0,1-3.251,32.246A159.188,159.188,0,0,1,5.7,259.554,160.013,160.013,0,0,1-9.05,286.732a161.148,161.148,0,0,1-19.537,23.68,161.147,161.147,0,0,1-23.68,19.537A160.014,160.014,0,0,1-79.446,344.7a159.188,159.188,0,0,1-30.034,9.323A161.181,161.181,0,0,1-141.725,357.275Z" transform="translate(733.725 313.725)" fill="#00c4b4"/><path d="M160,160H0a161.157,161.157,0,0,1,3.251-32.245A159.124,159.124,0,0,1,27.326,70.543a160.467,160.467,0,0,1,70.4-57.969,159.207,159.207,0,0,1,30.034-9.323A161.157,161.157,0,0,1,160,0V160Z" transform="translate(432 350.999)" fill="#01a299"/><path d="M160,160H0a161.157,161.157,0,0,1,3.251-32.245A159.124,159.124,0,0,1,27.326,70.543a160.467,160.467,0,0,1,70.4-57.969,159.207,159.207,0,0,1,30.034-9.323A161.157,161.157,0,0,1,160,0V160Z" transform="translate(432 671.001) rotate(-90)" fill="#00b3a6"/></g></g></svg>